<svg width="16" height="17" viewBox="0 0 16 17" fill="none" xmlns="http://www.w3.org/2000/svg">
<path d="M0.260488 14.9818L12.9656 2.27772L3.55594 2.27772C3.3202 2.27772 3.09411 2.18408 2.92742 2.01738C2.76073 1.85069 2.66708 1.6246 2.66708 1.38886C2.66708 1.15312 2.76073 0.927035 2.92742 0.760342C3.09411 0.593647 3.3202 0.500001 3.55594 0.500001L15.1111 0.500001C15.3469 0.500001 15.573 0.593647 15.7397 0.760342C15.9064 0.927035 16 1.15312 16 1.38886L16 12.9441C16 13.1798 15.9064 13.4059 15.7397 13.5726C15.573 13.7393 15.3469 13.8329 15.1111 13.8329C14.8754 13.8329 14.6493 13.7393 14.4826 13.5726C14.3159 13.4059 14.2223 13.1798 14.2223 12.9441L14.2223 3.53435L1.51823 16.2395C1.43564 16.3221 1.3376 16.3876 1.2297 16.4323C1.1218 16.477 1.00615 16.5 0.889357 16.5C0.772565 16.5 0.656917 16.477 0.549015 16.4323C0.441113 16.3876 0.343071 16.3221 0.260488 16.2395C0.177903 16.1569 0.112394 16.0589 0.0677004 15.951C0.0230055 15.8431 9.53674e-07 15.7274 9.53674e-07 15.6106C9.53674e-07 15.4939 0.0230055 15.3782 0.0677004 15.2703C0.112394 15.1624 0.177903 15.0644 0.260488 14.9818Z" fill="white"/>
</svg>
